<?xml version="1.0" encoding="UTF-8"?>
<svg width="16px" height="14px" viewBox="0 0 16 14" version="1.1" xmlns="http://www.w3.org/2000/svg" xmlns:xlink="http://www.w3.org/1999/xlink">
    <title>collection</title>
    <g id="Page-1" stroke="none" stroke-width="1" fill="none" fill-rule="evenodd">
        <g id="collection" fill="#94A3B8" fill-rule="nonzero">
            <path d="M5,0 C4.44772,0 4,0.44772 4,1 C4,1.55228 4.44772,2 5,2 L11,2 C11.5523,2 12,1.55228 12,1 C12,0.44772 11.5523,0 11,0 L5,0 Z" id="Path"></path>
            <path d="M2,4 C2,3.44772 2.44772,3 3,3 L13,3 C13.5523,3 14,3.44772 14,4 C14,4.55228 13.5523,5 13,5 L3,5 C2.44772,5 2,4.55228 2,4 Z" id="Path"></path>
            <path d="M0,8 C0,6.89543 0.89543,6 2,6 L14,6 C15.1046,6 16,6.89543 16,8 L16,12 C16,13.1046 15.1046,14 14,14 L2,14 C0.89543,14 0,13.1046 0,12 L0,8 Z" id="Path"></path>
        </g>
    </g>
</svg>