<?xml version="1.0" encoding="UTF-8" standalone="no"?>
<!DOCTYPE svg PUBLIC "-//W3C//DTD SVG 1.1//EN" "http://www.w3.org/Graphics/SVG/1.1/DTD/svg11.dtd">
<svg width="100%" height="100%" viewBox="0 0 183 39" version="1.1" xmlns="http://www.w3.org/2000/svg" xmlns:xlink="http://www.w3.org/1999/xlink" xml:space="preserve" xmlns:serif="http://www.serif.com/" style="fill-rule:evenodd;clip-rule:evenodd;stroke-linejoin:round;stroke-miterlimit:2;">
    <g transform="matrix(1,0,0,1,-1.86483,-0.5)">
        <g>
            <g transform="matrix(1.15084,-0.266282,0.235356,1.01718,-5.67931,5.27329)">
                <ellipse cx="20.75" cy="9" rx="3.25" ry="4.5" style="fill:rgb(158,67,65);"/>
            </g>
            <g>
                <path d="M108.87,20.04C108.821,20.433 108.648,20.721 108.338,20.894C107.91,21.133 107.106,21.288 105.929,21.377L105.531,21.407L107.076,23.725L107.213,23.714C108.913,23.58 110.062,23.126 110.676,22.392C111.285,21.661 111.605,20.473 111.605,18.819C111.605,18.819 111.605,10.924 111.605,10.924L109.119,10.924L109.119,11.316C108.626,10.919 107.997,10.716 107.229,10.716C106.056,10.716 105.109,11.164 104.387,12.059C103.681,12.934 103.321,14.105 103.321,15.577C103.321,17.134 103.681,18.329 104.381,19.168C105.097,20.025 106.04,20.456 107.212,20.456C107.877,20.456 108.429,20.315 108.87,20.04ZM130.658,20.04C130.609,20.435 130.436,20.721 130.126,20.894C129.698,21.133 128.894,21.288 127.717,21.377L127.319,21.407L128.864,23.725L129.001,23.714C130.701,23.58 131.85,23.126 132.464,22.392C133.073,21.661 133.393,20.473 133.393,18.819C133.393,18.819 133.393,10.924 133.393,10.924L130.907,10.924L130.907,11.316C130.414,10.919 129.785,10.716 129.017,10.716C127.844,10.716 126.897,11.164 126.175,12.059C125.469,12.934 125.109,14.105 125.109,15.577C125.109,17.134 125.469,18.329 126.169,19.168C126.885,20.025 127.828,20.456 129,20.456C129.665,20.456 130.217,20.315 130.658,20.04ZM95.365,11.749L95.398,11.53L95.297,11.446C94.709,10.958 94.058,10.716 93.345,10.716C92.755,10.716 92.285,10.883 91.932,11.213C91.932,11.213 91.932,10.924 91.932,10.924L89.212,10.924L89.212,20.248L91.932,20.248L91.932,15.075C91.932,14.401 92.074,13.922 92.397,13.652C92.603,13.48 92.88,13.401 93.224,13.401C93.764,13.401 94.256,13.56 94.7,13.878L95.01,14.099L95.285,12.277L96.006,14.17L96.251,14.001C97.065,13.441 97.933,13.159 98.857,13.159C99.319,13.159 99.668,13.248 99.899,13.451C100.12,13.646 100.219,13.941 100.219,14.329L100.382,14.492L100.219,14.329L100.219,14.428C99.69,14.23 99.092,14.131 98.424,14.131C97.4,14.131 96.526,14.396 95.8,14.92C95.052,15.461 94.672,16.25 94.672,17.293C94.672,18.308 95.008,19.088 95.665,19.639C96.311,20.18 97.143,20.456 98.164,20.456C98.983,20.456 99.667,20.26 100.218,19.873L100.219,20.248L102.904,20.248L102.904,14.364C102.904,13.609 102.788,12.98 102.563,12.475C102.327,11.945 101.988,11.56 101.554,11.318C101.139,11.086 100.739,10.928 100.355,10.843C99.977,10.759 99.541,10.716 99.048,10.716C97.643,10.716 96.415,11.062 95.365,11.749ZM85.468,20.015L85.468,20.248L88.188,20.248L88.188,10.924L85.468,10.924L85.468,16.045C85.468,16.648 85.354,17.103 85.102,17.404C84.862,17.69 84.499,17.823 84.02,17.823C83.575,17.823 83.244,17.697 83.036,17.421C82.811,17.123 82.711,16.65 82.711,16.011C82.711,16.011 82.711,10.924 82.711,10.924L79.991,10.924L79.991,16.739C79.991,18.033 80.326,18.971 80.967,19.562C81.611,20.157 82.397,20.456 83.327,20.456C84.199,20.456 84.912,20.22 85.467,19.756C85.468,19.755 85.468,20.015 85.468,20.015ZM150.924,13.088L151.16,11.53L151.058,11.446C150.471,10.958 149.82,10.716 149.107,10.716C148.517,10.716 148.046,10.883 147.694,11.213C147.693,11.213 147.693,10.924 147.693,10.924L144.973,10.924L144.973,20.248L147.693,20.248L147.693,15.075C147.693,14.401 147.835,13.922 148.158,13.652C148.365,13.48 148.642,13.401 148.985,13.401C149.525,13.401 150.017,13.56 150.462,13.878L150.612,13.985C150.493,14.469 150.433,15 150.433,15.577C150.433,17.101 150.829,18.29 151.603,19.148C152.385,20.016 153.452,20.456 154.809,20.456C156.26,20.456 157.417,19.929 158.283,18.881L158.417,18.718L156.697,16.977L156.533,17.183C156.094,17.737 155.52,18.013 154.809,18.013C154.361,18.013 153.975,17.875 153.654,17.594C153.392,17.365 153.226,17.064 153.153,16.695C153.153,16.695 158.86,16.695 158.86,16.695L158.888,16.494C158.936,16.163 158.96,15.707 158.96,15.127C158.96,13.688 158.566,12.598 157.798,11.848C157.027,11.096 156.032,10.716 154.809,10.716C153.464,10.716 152.4,11.161 151.611,12.042C151.333,12.352 151.104,12.7 150.924,13.088ZM180.359,20.456C181.481,20.456 182.37,20.202 183.029,19.707C183.713,19.195 184.059,18.472 184.059,17.536C184.059,16.661 183.772,15.988 183.214,15.512C182.686,15.063 181.945,14.679 180.985,14.367L180.983,14.367C180.325,14.169 179.863,13.973 179.601,13.769C179.488,13.681 179.413,13.605 179.413,13.515C179.413,13.352 179.504,13.244 179.67,13.179C179.829,13.117 180.042,13.089 180.307,13.089C180.874,13.089 181.397,13.32 181.881,13.772L182.03,13.911L183.882,12.4L183.724,12.218C182.859,11.218 181.721,10.716 180.307,10.716C179.327,10.716 178.513,10.956 177.864,11.428C177.188,11.919 176.849,12.591 176.849,13.445C176.849,14.247 177.121,14.884 177.655,15.361C178.158,15.81 178.952,16.219 180.041,16.578C180.614,16.799 181.017,16.983 181.244,17.133C181.406,17.239 181.495,17.37 181.495,17.536C181.495,17.747 181.379,17.889 181.163,17.974C180.971,18.049 180.714,18.083 180.393,18.083C179.701,18.083 179.064,17.784 178.478,17.198L178.326,17.046L176.508,18.589L176.633,18.764C177.002,19.28 177.529,19.695 178.218,20.002C178.895,20.305 179.609,20.456 180.359,20.456ZM141.522,16.105C141.499,16.541 141.319,16.914 140.983,17.226C140.617,17.567 140.169,17.736 139.643,17.736C138.761,17.736 138.097,17.388 137.656,16.684C137.192,15.944 136.964,15.031 136.964,13.948C136.964,13.492 137.011,13.049 137.106,12.62C137.2,12.195 137.346,11.785 137.545,11.393C137.734,11.021 138.009,10.723 138.371,10.497C138.734,10.271 139.158,10.16 139.643,10.16C140.429,10.16 141.119,10.645 141.736,11.58L141.856,11.763L144.32,10.356L144.191,10.15C143.677,9.324 143.074,8.669 142.386,8.185C141.687,7.692 140.773,7.44 139.643,7.44C138.723,7.44 137.898,7.638 137.166,8.031C136.433,8.425 135.846,8.944 135.403,9.586C134.968,10.219 134.637,10.907 134.41,11.653C134.184,12.397 134.071,13.162 134.071,13.948C134.071,14.791 134.178,15.587 134.392,16.335C134.607,17.088 134.933,17.776 135.37,18.398C135.813,19.03 136.402,19.532 137.137,19.902C137.867,20.27 138.702,20.456 139.643,20.456C141.028,20.456 142.162,20.009 143.049,19.122C143.933,18.239 144.383,17.013 144.383,15.439C144.383,15.439 144.383,13.42 144.383,13.42L139.461,13.42L139.461,16.105L141.522,16.105ZM78.336,19.147L78.902,18.508L78.336,19.147C79.098,18.288 79.487,17.106 79.487,15.595C79.487,14.096 79.095,12.913 78.328,12.043C77.55,11.161 76.502,10.716 75.18,10.716C73.858,10.716 72.81,11.161 72.032,12.043C71.265,12.913 70.873,14.096 70.873,15.595C70.873,17.106 71.262,18.288 72.024,19.147C72.795,20.016 73.846,20.456 75.18,20.456C76.514,20.456 77.565,20.016 78.336,19.147ZM66.86,20.456C67.883,20.456 68.72,20.203 69.375,19.707C70.03,19.211 70.506,18.471 70.793,17.48L70.858,17.257L68.266,16.484L68.197,16.704C67.968,17.442 67.528,17.823 66.86,17.823C66.417,17.823 66.059,17.63 65.783,17.251C65.485,16.841 65.343,16.288 65.343,15.595C65.343,14.902 65.488,14.345 65.792,13.93C66.074,13.544 66.447,13.349 66.912,13.349C67.518,13.349 67.936,13.687 68.184,14.343L68.264,14.552L70.845,13.698L70.774,13.478C70.186,11.639 68.883,10.716 66.86,10.716C65.561,10.716 64.525,11.161 63.747,12.043C62.979,12.913 62.588,14.096 62.588,15.595C62.588,17.106 62.977,18.288 63.739,19.147C64.51,20.016 65.549,20.456 66.86,20.456ZM163.407,20.456C164.857,20.456 166.014,19.929 166.88,18.881L167.014,18.718L165.294,16.977L165.13,17.183C164.692,17.737 164.117,18.013 163.407,18.013C162.958,18.013 162.573,17.875 162.251,17.594C161.989,17.365 161.824,17.064 161.75,16.695C161.75,16.695 167.457,16.695 167.457,16.695L167.486,16.494C167.533,16.163 167.557,15.707 167.557,15.127C167.557,13.688 167.163,12.598 166.395,11.848C165.625,11.096 164.63,10.716 163.407,10.716C162.062,10.716 160.997,11.161 160.208,12.042C159.428,12.913 159.031,14.09 159.031,15.577C159.031,17.101 159.426,18.29 160.2,19.148C160.982,20.016 162.05,20.456 163.407,20.456ZM121.885,15.161L121.885,20.248L124.605,20.248L124.605,14.433C124.605,13.127 124.272,12.187 123.638,11.601C123,11.013 122.211,10.716 121.269,10.716C120.403,10.716 119.69,10.953 119.128,11.421C119.128,11.422 119.128,10.924 119.128,10.924L116.408,10.924L116.408,20.248L119.128,20.248L119.128,15.127C119.128,14.524 119.242,14.069 119.494,13.768C119.734,13.482 120.097,13.349 120.576,13.349C121.021,13.349 121.353,13.472 121.561,13.743C121.786,14.037 121.885,14.512 121.885,15.161ZM173.539,15.161L173.539,20.248L176.259,20.248L176.259,14.433C176.259,13.127 175.926,12.187 175.291,11.601C174.653,11.013 173.864,10.716 172.923,10.716C172.057,10.716 171.344,10.953 170.782,11.421C170.781,11.422 170.781,10.924 170.781,10.924L168.061,10.924L168.061,20.248L170.781,20.248L170.781,15.127C170.781,14.524 170.896,14.069 171.147,13.768C171.387,13.482 171.75,13.349 172.229,13.349C172.675,13.349 173.006,13.472 173.214,13.743C173.44,14.037 173.539,14.512 173.539,15.161ZM59.364,15.161L59.364,20.248L62.084,20.248L62.084,14.433C62.084,13.127 61.751,12.187 61.116,11.601C60.478,11.013 59.689,10.716 58.748,10.716C57.882,10.716 57.169,10.953 56.607,11.421C56.607,11.422 56.607,10.924 56.607,10.924L53.887,10.924L53.887,20.248L56.607,20.248L56.607,15.127C56.607,14.524 56.721,14.069 56.973,13.768C57.212,13.482 57.576,13.349 58.055,13.349C58.5,13.349 58.832,13.472 59.04,13.743C59.265,14.037 59.364,14.512 59.364,15.161ZM44.267,7.648L44.267,20.248L53.383,20.248L53.383,17.563L47.073,17.563C47.073,17.563 47.073,15.1 47.073,15.1C47.073,15.1 50.575,15.1 50.575,15.1L50.575,12.415L47.073,12.415C47.073,12.415 47.073,10.333 47.073,10.333C47.073,10.333 53.019,10.333 53.019,10.333L53.019,7.648L44.267,7.648ZM112.647,10.924L112.647,20.248L115.367,20.248L115.367,10.924L112.647,10.924ZM98.597,18.013C98.18,18.013 97.855,17.945 97.626,17.793C97.438,17.667 97.34,17.502 97.34,17.293C97.34,17.039 97.456,16.851 97.685,16.728C97.969,16.575 98.343,16.504 98.805,16.504C99.325,16.504 99.796,16.578 100.218,16.726C100.219,16.726 100.219,17.413 100.219,17.413C99.749,17.813 99.209,18.013 98.597,18.013ZM107.576,17.823C107.084,17.823 106.709,17.634 106.453,17.251C106.174,16.833 106.041,16.274 106.041,15.577C106.041,14.841 106.173,14.275 106.456,13.886C106.718,13.525 107.092,13.349 107.576,13.349C108.1,13.349 108.536,13.543 108.885,13.93C108.885,13.931 108.885,17.266 108.885,17.266C108.582,17.641 108.144,17.823 107.576,17.823ZM129.364,17.823C128.872,17.823 128.497,17.634 128.241,17.251C127.962,16.833 127.829,16.274 127.829,15.577C127.829,14.841 127.961,14.275 128.244,13.886C128.506,13.525 128.88,13.349 129.364,13.349C129.888,13.349 130.324,13.543 130.673,13.93C130.673,13.931 130.673,17.266 130.673,17.266C130.37,17.641 129.932,17.823 129.364,17.823ZM75.18,17.823C74.704,17.823 74.324,17.635 74.041,17.257C73.737,16.853 73.593,16.297 73.593,15.595C73.593,14.891 73.738,14.332 74.042,13.922C74.324,13.54 74.704,13.349 75.18,13.349C75.666,13.349 76.049,13.536 76.327,13.913C76.625,14.318 76.767,14.88 76.767,15.595C76.767,16.308 76.626,16.867 76.328,17.266C76.05,17.639 75.666,17.823 75.18,17.823ZM161.778,14.321C161.859,13.974 162.008,13.702 162.232,13.51C162.513,13.27 162.906,13.159 163.407,13.159C163.804,13.159 164.136,13.28 164.399,13.528C164.614,13.731 164.76,13.996 164.841,14.322L161.778,14.321ZM153.181,14.321C153.262,13.974 153.41,13.702 153.635,13.51C153.916,13.27 154.309,13.159 154.809,13.159C155.207,13.159 155.538,13.28 155.802,13.528C156.017,13.731 156.162,13.996 156.244,14.322L153.181,14.321ZM114.007,10.351C114.442,10.351 114.809,10.2 115.108,9.901C115.407,9.602 115.557,9.235 115.557,8.8C115.557,8.363 115.406,7.999 115.106,7.706C114.807,7.414 114.441,7.267 114.007,7.267C113.572,7.267 113.205,7.417 112.906,7.716C112.606,8.016 112.456,8.377 112.456,8.8C112.456,9.222 112.608,9.586 112.914,9.892C113.22,10.198 113.585,10.351 114.007,10.351Z" style="fill:url(#_Linear1);fill-rule:nonzero;"/>
            </g>
            <g transform="matrix(1,0,0,1,1.77636e-15,0.75)">
                <text x="43.5px" y="28.907px" style="font-family:'Poppins-Light', 'Poppins';font-weight:300;font-size:9.333px;fill:rgb(158,67,65);">T<tspan x="47.756px 53.067px 55.848px 61.159px 63.119px 68.513px 73.021px 78.229px 81.011px 82.971px 88.673px 90.633px 95.944px 101.152px 108.161px 110.121px 111.661px 116.869px 122.572px " y="28.907px 28.907px 28.907px 28.907px 28.907px 28.907px 28.907px 28.907px 28.907px 28.907px 28.907px 28.907px 28.907px 28.907px 28.907px 28.907px 28.907px 28.907px 28.907px ">urn over a new leaf</tspan></text>
            </g>
            <path d="M2,13C2,13 1.169,16.926 3.628,22.139C6.088,27.352 11.838,33.852 25,39C19.667,25.366 12.571,15.484 2,13ZM4,12.5C4,12.5 16.661,11.661 21.5,17.5C26.339,23.339 25.5,37.5 25.5,37.5C25.5,37.5 21.583,26.167 18,22C11.837,14.833 4,12.5 4,12.5Z" style="fill:url(#_Linear2);"/>
            <path d="M25,0.5C25,0.5 41,7.464 41,19.5C41,32.536 27.5,34 27.5,34C27.5,34 33.198,27.977 33,18.5C32.802,9.023 25,0.5 25,0.5ZM23.5,1C23.5,1 31,8.47 31,18.5C31,28.53 26.5,33 26.5,33C26.5,33 26.249,25.709 25,22.75C24.519,21.609 25.534,15.914 25.556,12C25.586,6.557 23.5,1 23.5,1Z" style="fill:url(#_Linear3);"/>
        </g>
    </g>
    <defs>
        <linearGradient id="_Linear1" x1="0" y1="0" x2="1" y2="0" gradientUnits="userSpaceOnUse" gradientTransform="matrix(9.64851e-16,15.9813,-15.7572,9.78574e-16,122.927,8)"><stop offset="0" style="stop-color:rgb(188,210,41);stop-opacity:1"/><stop offset="1" style="stop-color:rgb(116,173,64);stop-opacity:1"/></linearGradient>
        <linearGradient id="_Linear2" x1="0" y1="0" x2="1" y2="0" gradientUnits="userSpaceOnUse" gradientTransform="matrix(1.66396e-16,26.5418,-2.71746,1.62522e-15,15.2406,12.4582)"><stop offset="0" style="stop-color:rgb(116,173,64);stop-opacity:1"/><stop offset="1" style="stop-color:rgb(188,210,41);stop-opacity:1"/></linearGradient>
        <linearGradient id="_Linear3" x1="0" y1="0" x2="1" y2="0" gradientUnits="userSpaceOnUse" gradientTransform="matrix(-14.4443,2,-0.119841,-0.865514,40,16.5)"><stop offset="0" style="stop-color:rgb(188,210,41);stop-opacity:1"/><stop offset="1" style="stop-color:rgb(116,173,64);stop-opacity:1"/></linearGradient>
    </defs>
</svg>
