<?xml version="1.0" encoding="UTF-8"?>
<svg width="225px" height="151px" viewBox="0 0 225 151" version="1.1" xmlns="http://www.w3.org/2000/svg" xmlns:xlink="http://www.w3.org/1999/xlink">
    <title>Sticker</title>
    <g id="Mockups" stroke="none" stroke-width="1" fill="none" fill-rule="evenodd">
        <g id="Home" transform="translate(-589.000000, -4057.000000)">
            <g id="Sticker" transform="translate(588.999692, 4057.992935)">
                <rect id="Rectangle" fill="#009E46" x="-2.55642405e-13" y="-9.54934868e-13" width="224" height="150" rx="26"></rect>
                <g id="Hello-I’m" transform="translate(25.675762, 18.811200)" fill="#FFFFFF" fill-rule="nonzero">
                    <polygon id="Path" points="22.0839506 27.5820896 15.7509196 27.5820896 15.7509196 16.5878301 6.36932347 16.5878301 6.36932347 27.5820896 -1.0863191e-13 27.5820896 -1.0863191e-13 1.25373134 6.36932347 1.25373134 6.36932347 11.7055109 15.7509196 11.7055109 15.7509196 1.25373134 22.0839506 1.25373134"></polygon>
                    <polygon id="Path" points="42.7391634 16.4250861 32.708841 16.4250861 32.708841 22.6997704 44.5562508 22.6997704 44.5562508 27.5820896 26.3308642 27.5820896 26.3308642 1.25373134 44.5925926 1.25373134 44.5925926 6.15413318 32.708841 6.15413318 32.708841 11.7055109 42.7391634 11.7055109"></polygon>
                    <polygon id="Path" points="53.4938939 22.6997704 64.5530864 22.6997704 64.5530864 27.5820896 47.1407407 27.5820896 47.1407407 1.25373134 53.4938939 1.25373134"></polygon>
                    <polygon id="Path" points="73.8790791 22.6997704 84.9382716 22.6997704 84.9382716 27.5820896 67.5259259 27.5820896 67.5259259 1.25373134 73.8790791 1.25373134"></polygon>
                    <path d="M110.419753,15.1632213 C110.419753,17.7019714 109.936947,19.9487057 108.971336,21.9034241 C108.005724,23.8581424 106.6337,25.362918 104.855263,26.4177508 C103.076826,27.4725836 101.050875,28 98.7774095,28 C96.503944,28 94.4871601,27.4904621 92.7270578,26.4713864 C90.9669554,25.4523106 89.5949312,23.9952111 88.6109851,22.1000878 C87.627039,20.2049645 87.1106201,18.0297443 87.0617284,15.5744273 L87.0617284,14.1083885 C87.0617284,11.5577194 87.5414785,9.30800543 88.5009787,7.35924655 C89.460479,5.41048767 90.8355589,3.90571208 92.6262186,2.84491979 C94.4168782,1.78412749 96.4550523,1.25373134 98.7407407,1.25373134 C101.001983,1.25373134 103.018767,1.77816798 104.791093,2.82704126 C106.563418,3.87591454 107.941553,5.36877112 108.9255,7.30561098 C109.909446,9.24245085 110.40753,11.4623673 110.419753,13.9653604 L110.419753,15.1632213 Z M103.874373,14.0726315 C103.874373,11.4862053 103.431291,9.52254769 102.545129,8.18165855 C101.658966,6.84076941 100.390837,6.17032485 98.7407407,6.17032485 C95.5138865,6.17032485 93.8087873,8.53028973 93.6254433,13.2502195 L93.6071089,15.1632213 C93.6071089,17.7138904 94.0410231,19.6745683 94.9088513,21.045255 C95.7766795,22.4159417 97.0661989,23.101285 98.7774095,23.101285 C100.40306,23.101285 101.65591,22.4278607 102.535961,21.0810121 C103.416013,19.7341634 103.86215,17.7973235 103.874373,15.2704925 L103.874373,14.0726315 Z" id="Shape"></path>
                    <polygon id="Path" points="129.955556 27.5820896 123.585185 27.5820896 123.585185 1.25373134 129.955556 1.25373134"></polygon>
                    <path d="M136.011577,9.6119403 L133.353086,8.17732234 C134.347027,6.4557808 134.855972,4.7701047 134.879922,3.12029405 L134.879922,-1.5060797e-13 L139.298765,-1.5060797e-13 L139.298765,2.92303408 C139.298765,4.034863 138.978429,5.2214116 138.337757,6.48267988 C137.697085,7.74394817 136.921691,8.78703497 136.011577,9.6119403 Z" id="Path"></path>
                    <polygon id="Path" points="151.58996 1.25373134 157.560494 19.5714696 163.512657 1.25373134 172 1.25373134 172 27.5820896 165.533453 27.5820896 165.533453 21.4339839 166.158062 8.84845006 159.691515 27.5820896 155.429473 27.5820896 148.944554 8.83036739 149.569164 21.4339839 149.569164 27.5820896 143.120988 27.5820896 143.120988 1.25373134"></polygon>
                </g>
                <rect id="Rectangle" fill="#FFFFFF" x="0.162118798" y="64.0944001" width="224" height="64"></rect>
                <g id="Whole-Food-Plant-Bas" transform="translate(10.120444, 85.048920)" fill="#333333" fill-rule="nonzero" stroke="#333333" stroke-width="0.950118765">
                    <path d="M1.56894056e-13,7.43095428 C0.0304337845,7.35287587 0.0913013535,7.2630857 0.182602707,7.16158377 C0.27390406,7.06008184 0.376618083,6.95467599 0.490744775,6.84536622 C0.604871467,6.73605644 0.718998159,6.63065059 0.833124851,6.52914866 C0.947251543,6.42764673 1.04996557,6.35347224 1.14126692,6.3066252 C1.26300206,6.40031929 1.36571608,6.5174369 1.44940899,6.65797804 C1.53310189,6.79851917 1.63581592,7.03665832 1.75755105,7.37239547 C1.87928619,7.70813263 2.02765089,8.16489132 2.20264515,8.74267155 C2.37763941,9.32045177 2.60969702,10.093428 2.89881797,11.0616003 C3.18793893,12.0297726 3.54934012,13.2204683 3.98302155,14.6336875 C4.41670298,16.0469067 4.94548998,17.7451121 5.56938256,19.7283037 C5.63025013,19.6814566 5.7405726,19.4316057 5.90034997,18.9787509 C6.06012734,18.5258962 6.25414271,17.9598277 6.4823961,17.2805455 C6.71064948,16.6012634 6.95792398,15.8439028 7.2242196,15.0084638 C7.49051521,14.1730249 7.7530066,13.3297781 8.01169377,12.4787234 C8.27038094,11.6276687 8.51765544,10.8156533 8.75351727,10.0426771 C8.9893791,9.26970081 9.19100292,8.60213041 9.35838873,8.03996587 C9.40403941,7.82134632 9.43827742,7.6066307 9.46110276,7.395819 C9.48392809,7.18500729 9.5181661,6.99371519 9.56381678,6.82194269 C9.60946746,6.65017019 9.68935614,6.50572514 9.80348283,6.38860753 C9.91760952,6.27148991 10.1116249,6.21293111 10.385529,6.21293111 C10.5985655,6.11923702 10.7963851,6.22854679 10.9789878,6.54086042 C11.1615905,6.85317406 11.3479974,7.30602883 11.5382085,7.89942473 C11.7284197,8.49282064 11.9300435,9.18381456 12.14308,9.97240648 C12.3561165,10.7609984 12.5957826,11.5847256 12.8620782,12.4435881 C13.1283738,13.3024506 13.4251032,14.1574092 13.7522664,15.0084638 C14.0794296,15.8595185 14.4636561,16.6363987 14.904946,17.3391043 L18.1233187,3.84715532 C18.1537525,3.72222987 18.2108158,3.62072794 18.2945087,3.54264953 C18.3782016,3.46457112 18.4771114,3.42553191 18.5912381,3.42553191 C18.7053648,3.42553191 18.8232957,3.4801868 18.9450309,3.58949657 C19.066766,3.69880635 19.1808927,3.87838669 19.2874109,4.12823759 L16.0918636,17.3391043 C16.0918636,17.5421082 16.0690382,17.7802474 16.0233875,18.0535218 C15.9777369,18.3267962 15.9168693,18.5922628 15.8407848,18.8499216 C15.7647004,19.1075803 15.6772032,19.3301038 15.5782934,19.5174919 C15.4793836,19.7048801 15.3652569,19.8180938 15.2359134,19.857133 C15.1065698,19.8961722 14.9658135,19.8415173 14.8136446,19.6931684 C14.6614757,19.5448194 14.5016983,19.2520254 14.3343125,18.8147863 C13.4821665,17.2688338 12.7213219,15.6565146 12.0517787,13.9778289 C11.3822354,12.2991431 10.7735597,10.5228593 10.2257516,8.64897746 L7.30410828,18.533704 C7.21280693,19.220794 7.07965912,19.7712468 6.90466486,20.1850623 C6.7296706,20.5988779 6.53945944,20.9072876 6.3340314,21.1102915 C6.12860335,21.3132953 5.91937109,21.4382208 5.70633459,21.4850678 C5.4932981,21.5319149 5.30308695,21.5436267 5.13570113,21.5202031 C4.96831532,21.4967796 4.84277596,21.4499326 4.75908305,21.379662 C4.67539014,21.3093914 4.64876058,21.2586405 4.67919437,21.2274091 C4.32920585,20.743323 4.02867222,20.1616388 3.7775935,19.4823567 C3.52651478,18.8030745 3.2982614,18.0613296 3.09283335,17.257122 C2.8874053,16.4529144 2.68578148,15.6096676 2.48796188,14.7273816 C2.29014228,13.8450956 2.08091002,12.9706174 1.86026508,12.103947 C1.63962014,11.2372767 1.37712875,10.4057417 1.0727909,9.60934188 C0.768453059,8.81294212 0.410856091,8.08681291 1.56894056e-13,7.43095428 Z" id="Path"></path>
                    <path d="M29.2755344,10.9550479 C28.7091581,10.7335915 28.1657429,10.8205922 27.645289,11.21605 C27.124835,11.6115078 26.6273423,12.1691032 26.1528108,12.8888364 C25.6782792,13.6085695 25.2267089,14.4271671 24.7980998,15.3446291 C24.3694906,16.2620912 23.9714964,17.1320983 23.6041172,17.9546504 C23.2367379,18.7772026 22.9038005,19.4811174 22.6053048,20.0663949 C22.3068092,20.6516724 22.0351016,20.9759478 21.7901821,21.039221 C21.6064925,21.039221 21.4648984,21.0036298 21.3653998,20.9324474 C21.2659013,20.861265 21.216152,20.683309 21.216152,20.3985794 L21.216152,3.71817067 C21.216152,3.57580587 21.273555,3.48880516 21.388361,3.45716854 C21.5031671,3.42553191 21.6294537,3.41762276 21.7672209,3.43344107 C21.9049881,3.44925938 22.0351016,3.48485058 22.1575614,3.54021467 C22.2800211,3.59557876 22.3565585,3.65489742 22.3871734,3.71817067 L22.685669,17.0767342 C22.8540512,16.7920046 23.0109528,16.3925922 23.1563737,15.8784971 C23.3017947,15.364402 23.4740037,14.8107611 23.6730008,14.2175745 C23.8719979,13.6243878 24.1054368,13.0312012 24.3733175,12.4380145 C24.6411982,11.8448279 24.9741357,11.3109599 25.3721298,10.8364105 C25.770124,10.3618612 26.2561362,9.99408549 26.8301663,9.73308336 C27.4041964,9.47208123 28.0815519,9.38112595 28.8622328,9.4602175 C29.3826867,9.4602175 29.8036421,9.63026434 30.125099,9.97035803 C30.4465558,10.3104517 30.614938,10.757319 30.6302454,11.3109599 L30.8598575,20.7782189 C30.8598575,20.8414921 30.8483769,20.9324474 30.8254157,21.0510848 C30.8024545,21.1697221 30.7412246,21.2725411 30.641726,21.3595418 C30.5422275,21.4465425 30.4044603,21.5019066 30.2284244,21.5256341 C30.0523885,21.5493616 29.8266033,21.5058612 29.5510689,21.395133 L29.2755344,10.9550479 Z" id="Path"></path>
                    <path d="M31.9799775,17.8330693 C31.8761445,17.1146446 31.824228,16.4157424 31.824228,15.7363626 C31.824228,15.0569828 31.8650195,14.3658895 31.9466026,13.6630828 C32.0281856,12.9602761 32.1468518,12.2301381 32.3026013,11.4726686 C32.4583507,10.7151992 32.6400583,9.89916252 32.8477242,9.02455862 C32.8477242,8.85276143 32.8922241,8.69267768 32.9812237,8.54430738 C33.0702234,8.39593708 33.1888896,8.27099366 33.3372224,8.16947714 C33.4855552,8.06796062 33.6413046,7.9859665 33.8044707,7.92349479 C33.9676367,7.86102309 34.1233862,7.82978723 34.2717189,7.82978723 C34.5980511,7.82978723 34.8947166,7.93911272 35.1617156,8.15776369 C35.4287146,8.37641467 35.6697554,8.64191942 35.884838,8.95427795 C36.0999205,9.26663649 36.2853365,9.59851743 36.4410859,9.94992078 C36.5968353,10.3013241 36.7266265,10.6019692 36.8304594,10.851856 C36.9491257,11.3984835 37.034417,12.0192961 37.0863335,12.7142938 C37.13825,13.4092915 37.1419583,14.1160027 37.0974585,14.8344273 C37.0529586,15.552852 36.9491257,16.2595632 36.7859596,16.9545609 C36.6227936,17.6495586 36.3928777,18.2859891 36.0962122,18.8638524 C35.7995466,19.4417157 35.4175897,19.9258714 34.9503414,20.3163196 C34.4830932,20.7067678 33.9305535,20.9488456 33.2927226,21.0425532 C32.9515572,21.0425532 32.6919748,20.9215143 32.5139755,20.6794364 C32.3359761,20.4373585 32.2061849,20.1406179 32.1246019,19.7892146 C32.0430189,19.4378112 31.998519,19.0825034 31.9911024,18.7232911 C31.9836858,18.3640788 31.9799775,18.0673382 31.9799775,17.8330693 Z M33.1147232,17.7627886 C33.1147232,17.9189679 33.1184316,18.0673382 33.1258482,18.2078995 C33.1332648,18.3484608 33.1480981,18.4851177 33.170348,18.6178701 C33.1925979,18.7506225 33.2222645,18.8911838 33.2593477,19.0395541 C33.2964309,19.1879244 33.3446391,19.3558171 33.4039722,19.5432322 L33.5374717,19.5432322 C33.8934703,19.5432322 34.1975526,19.4182888 34.4497183,19.168402 C34.701884,18.9185152 34.9169665,18.5944432 35.0949659,18.1961861 C35.2729652,17.7979289 35.421298,17.352818 35.5399642,16.8608533 C35.6586305,16.3688886 35.7513385,15.8847329 35.8180882,15.4083861 C35.884838,14.9320394 35.9293378,14.4869285 35.9515877,14.0730534 C35.9738376,13.6591784 35.9849626,13.3272974 35.9849626,13.0774106 L35.9849626,12.6088728 C35.9849626,12.4058397 35.9775459,12.1754753 35.9627127,11.9177795 C35.9478794,11.6600837 35.9219212,11.394579 35.884838,11.1212653 C35.8477548,10.8479516 35.79213,10.5980647 35.7179636,10.3716048 C35.6437972,10.1451449 35.5473809,9.96163422 35.4287146,9.82107288 C35.3100484,9.68051154 35.154299,9.61023087 34.9614664,9.61023087 C34.6351343,9.50090539 34.3570103,9.52433228 34.1270945,9.68051154 C33.8971787,9.83669081 33.7117627,10.0982911 33.5708465,10.4653124 C33.4299304,10.8323336 33.3223891,11.281349 33.2482227,11.8123585 C33.1740564,12.343368 33.1295565,12.9290403 33.1147232,13.5693753 C33.09989,14.2097103 33.0961816,14.8890901 33.1035983,15.6075147 C33.1110149,16.3259393 33.1147232,17.044364 33.1147232,17.7627886 Z" id="Shape"></path>
                    <path d="M38.628398,19.338963 C38.7284068,18.6340186 38.7962699,17.752838 38.8319873,16.6954214 C38.8677048,15.6380047 38.8819917,14.5116261 38.8748482,13.3162855 C38.8677048,12.1209449 38.8427026,10.8872922 38.7998416,9.61532721 C38.7569807,8.34336225 38.6998328,7.13652802 38.628398,5.99482452 C38.5569631,4.85312103 38.4748131,3.83018535 38.3819477,2.92601748 C38.2890824,2.02184961 38.1926454,1.30924273 38.0926366,0.788196845 C38.2212193,0.69624757 38.3319433,0.623454394 38.4248087,0.569817317 C38.517674,0.516180241 38.628398,0.489361702 38.7569807,0.489361702 C38.8569895,0.489361702 38.9427114,0.508517801 39.0141462,0.546829999 C39.0855811,0.585142197 39.142729,0.665597812 39.1855899,0.788196845 C39.4713293,3.79187315 39.6677751,6.81853677 39.7749274,9.86818772 C39.8820797,12.9178387 39.9642298,15.9521647 40.0213777,18.9711659 C40.0213777,19.1090898 40.0213777,19.2968196 40.0213777,19.5343552 C40.0213777,19.7718908 40.0142342,19.8983211 39.9999472,19.913646 C39.7999296,20.0209201 39.6213425,20.070726 39.4641858,20.0630635 C39.3070291,20.0554011 39.1641594,20.0094265 39.0355767,19.9251396 C38.9069939,19.8408528 38.8069851,19.7450723 38.7355503,19.6377981 C38.6641154,19.530524 38.628398,19.4309123 38.628398,19.338963 Z" id="Path"></path>
                    <path d="M41.9859142,15.9584286 C41.9087084,15.974048 41.7928997,15.9974772 41.6384881,16.028716 C41.4840765,16.0599549 41.3219444,16.0677646 41.1520916,16.0521452 C40.9822389,16.0365257 40.8316876,15.9896675 40.7004377,15.9115703 C40.5691879,15.8334731 40.5035629,15.700708 40.5035629,15.5132748 C40.5035629,15.4039388 40.5267247,15.3258417 40.5730482,15.2789834 C40.6193716,15.2321251 40.6965774,15.1618376 40.8046655,15.0681211 C41.144371,14.7869713 41.4338928,14.4238196 41.6732307,13.9786658 C41.9125687,13.533512 42.1326052,13.0571194 42.3333402,12.5494879 C42.5340753,12.0418564 42.7463912,11.5342249 42.970288,11.0265934 C43.1941848,10.518962 43.4528243,10.0620936 43.7462063,9.65598842 C44.0395883,9.24988323 44.4024555,8.92187519 44.834808,8.67196431 C45.2671604,8.42205342 45.7998804,8.30490769 46.4329679,8.32052712 C46.6954676,8.32052712 46.9888496,8.38300484 47.3131139,8.50796029 C47.6373783,8.63291573 47.9384808,8.80082461 48.2164217,9.01168692 C48.4943626,9.22254923 48.7259799,9.47636497 48.9112738,9.77313415 C49.0965677,10.0699033 49.1892147,10.3979114 49.1892147,10.7571583 C49.2664205,10.8821137 49.193075,11.0617372 48.9691782,11.2960286 C48.7452814,11.5303201 48.4403185,11.7841358 48.0542895,12.0574758 C47.6682606,12.3308159 47.2320478,12.6119656 46.7456513,12.9009251 C46.2592548,13.1898846 45.7921598,13.4593197 45.3443662,13.7092306 C44.8965726,13.9591415 44.502823,14.1778135 44.1631176,14.3652467 C43.8234121,14.5526799 43.5995153,14.6932547 43.4914271,14.7869713 C43.4142214,14.9431656 43.3524567,15.1227891 43.3061332,15.3258417 C43.2598098,15.5288943 43.2250672,15.7202323 43.2019054,15.8998557 C43.1787437,16.0794792 43.1633025,16.2434832 43.1555819,16.3918678 C43.1478614,16.5402524 43.1440011,16.6534932 43.1440011,16.7315904 C43.1440011,17.0283596 43.1324202,17.3563676 43.1092585,17.7156145 C43.0860967,18.0748614 43.1015379,18.414584 43.1555819,18.7347823 C43.209626,19.0549807 43.3370156,19.320511 43.5377506,19.5313733 C43.7384857,19.7422356 44.0781912,19.8476668 44.5568671,19.8476668 C45.0664253,19.8476668 45.5451013,19.7188065 45.9928949,19.4610859 C46.4406885,19.2033653 46.8575997,18.8870718 47.2436287,18.5122055 C47.6296577,18.1373391 47.980944,17.7312339 48.2974878,17.2938899 C48.6140315,16.8565458 48.899693,16.4465358 49.1544721,16.0638597 C49.4092512,15.6811837 49.6370083,15.3648902 49.8377434,15.1149794 C50.0384784,14.8650685 50.2083312,14.740113 50.3473016,14.740113 C50.5017132,14.740113 50.6677056,14.767447 50.845279,14.822115 C51.0228523,14.876783 51.111639,15.0056433 51.111639,15.2086959 C51.111639,15.4898457 50.9996906,15.8256634 50.7757938,16.2161492 C50.551897,16.606635 50.2585149,17.0205499 49.8956477,17.4578939 C49.5327805,17.895238 49.1158692,18.3286772 48.6449139,18.7582115 C48.1739585,19.1877458 47.6991429,19.5704219 47.220467,19.9062396 C46.741791,20.2420574 46.2708357,20.5153974 45.807601,20.7262597 C45.3443662,20.937122 44.9351755,21.0425532 44.5800288,21.0425532 C43.8851767,21.0425532 43.3601773,20.8707395 43.0050307,20.527112 C42.649884,20.1834845 42.3989652,19.7539502 42.2522742,19.238509 C42.1055832,18.7230678 42.0283774,18.1724829 42.0206568,17.5867542 C42.0129362,17.0010256 42.0013553,16.4582504 41.9859142,15.9584286 Z M46.247674,9.63255928 C45.9851743,9.63255928 45.7072334,9.76141958 45.4138514,10.0191402 C45.1204694,10.2768608 44.8463888,10.5892494 44.5916097,10.956306 C44.3368306,11.3233626 44.1283749,11.6982289 43.9662428,12.080905 C43.8041106,12.463581 43.7230445,12.7798745 43.7230445,13.0297854 C43.9546619,13.0297854 44.2905071,12.9399737 44.7305801,12.7603502 C45.1706532,12.5807268 45.6068659,12.3581499 46.0392183,12.0926196 C46.4715708,11.8270892 46.8498792,11.5459395 47.1741435,11.2491703 C47.4984078,10.9524011 47.66054,10.6712514 47.66054,10.4057211 C47.66054,10.2651462 47.6064959,10.1480005 47.4984078,10.0542839 C47.3903197,9.96056731 47.2629302,9.88247016 47.1162391,9.81999244 C46.9695481,9.75751472 46.8189968,9.71065643 46.6645853,9.67941757 C46.5101737,9.64817871 46.3712032,9.63255928 46.247674,9.63255928 Z" id="Shape"></path>
                    <path d="M63.1662708,5.76397203 C63.1662708,5.60494083 63.2124245,5.48964322 63.304732,5.41807918 C63.3970396,5.34651514 63.5124239,5.29483 63.6508852,5.26302377 C63.7893465,5.23121753 63.9355,5.21531441 64.0893459,5.21531441 C64.2431917,5.21531441 64.3739607,5.20736285 64.4816528,5.19145973 L64.4816528,7.45765424 C65.4970354,7.15549497 66.3278029,6.84935992 66.9739555,6.5392491 C67.6201081,6.22913827 68.19703,5.94288212 68.7047213,5.68048065 C69.2124126,5.41807918 69.7162577,5.17953239 70.2162567,4.96484028 C70.7162557,4.75014817 71.3201007,4.56328651 72.0277916,4.40425532 C72.1354837,4.40425532 72.2124066,4.45991624 72.2585603,4.57123807 C72.3047141,4.68255991 72.327791,4.78593018 72.327791,4.8813489 C72.327791,5.05628321 72.2277912,5.19941129 72.0277916,5.31073312 L64.620114,8.9843537 L64.9201134,15.7113732 C66.0585727,15.0593453 67.0201093,14.5027361 67.8047231,14.0415457 C68.5893369,13.5803552 69.2354894,13.1986803 69.7431807,12.8965211 C70.250872,12.5943618 70.6470251,12.3637666 70.9316399,12.2047354 C71.2162547,12.0457042 71.4277928,11.9343823 71.566254,11.8707699 L71.8200997,11.7514965 C71.8508688,11.7355934 71.8739457,11.7276418 71.8893303,11.7276418 C71.9200995,11.7276418 71.9431764,11.7554723 71.9585609,11.8111332 C71.9739455,11.8667941 71.9816378,11.9343823 71.9816378,12.0138979 L71.9816378,12.3001541 C71.9816378,12.3796697 71.9970224,12.4512337 72.0277916,12.5148462 C71.9508686,12.6102649 71.723946,12.7851992 71.3470237,13.0396491 C70.9701014,13.2940991 70.5201023,13.584331 69.9970264,13.9103449 C69.4739505,14.2363589 68.9162593,14.5782759 68.3239528,14.9360961 C67.7316463,15.2939163 67.1816474,15.6318576 66.6739561,15.94992 C66.1662708,16.2679824 65.7470349,16.5423112 65.4162663,16.7729064 C65.0854977,17.0035016 64.9201134,17.1585571 64.9201134,17.2380727 L64.9201134,20.8878386 C64.9201134,21.0945791 64.8854981,21.2536103 64.8162675,21.3649321 C64.7470369,21.476254 64.6354986,21.5319149 64.4816528,21.5319149 C64.3124223,21.5319149 64.1624226,21.3331259 64.0316537,20.9355479 C63.9008847,20.5379699 63.7931926,20.0091912 63.7085774,19.3492118 C63.6239622,18.6892323 63.5508854,17.9298584 63.4893471,17.0710899 C63.4278087,16.2123215 63.3739627,15.3217468 63.3278089,14.3993659 C63.2816552,13.4769849 63.2470399,12.554604 63.223963,11.6322231 C63.2008861,10.7098422 63.1855015,9.85504949 63.1778092,9.06784508 C63.1701169,8.28064067 63.1662708,7.60078231 63.1662708,7.02827002 L63.1662708,5.76397203 Z" id="Path"></path>
                    <path d="M72.9657257,17.8330693 C72.8618927,17.1146446 72.8099762,16.4157424 72.8099762,15.7363626 C72.8099762,15.0569828 72.8507678,14.3658895 72.9323508,13.6630828 C73.0139338,12.9602761 73.1326,12.2301381 73.2883495,11.4726686 C73.4440989,10.7151992 73.6258066,9.89916252 73.8334724,9.02455862 C73.8334724,8.85276143 73.8779723,8.69267768 73.966972,8.54430738 C74.0559716,8.39593708 74.1746378,8.27099366 74.3229706,8.16947714 C74.4713034,8.06796062 74.6270528,7.9859665 74.7902189,7.92349479 C74.953385,7.86102309 75.1091344,7.82978723 75.2574672,7.82978723 C75.5837993,7.82978723 75.8804648,7.93911272 76.1474639,8.15776369 C76.4144629,8.37641467 76.6555036,8.64191942 76.8705862,8.95427795 C77.0856687,9.26663649 77.2710847,9.59851743 77.4268341,9.94992078 C77.5825835,10.3013241 77.7123747,10.6019692 77.8162077,10.851856 C77.9348739,11.3984835 78.0201652,12.0192961 78.0720817,12.7142938 C78.1239982,13.4092915 78.1277065,14.1160027 78.0832067,14.8344273 C78.0387068,15.552852 77.9348739,16.2595632 77.7717078,16.9545609 C77.6085418,17.6495586 77.378626,18.2859891 77.0819604,18.8638524 C76.7852948,19.4417157 76.4033379,19.9258714 75.9360896,20.3163196 C75.4688414,20.7067678 74.9163018,20.9488456 74.2784708,21.0425532 C73.9373054,21.0425532 73.677723,20.9215143 73.4997237,20.6794364 C73.3217243,20.4373585 73.1919332,20.1406179 73.1103501,19.7892146 C73.0287671,19.4378112 72.9842673,19.0825034 72.9768506,18.7232911 C72.969434,18.3640788 72.9657257,18.0673382 72.9657257,17.8330693 Z M74.1004715,17.7627886 C74.1004715,17.9189679 74.1041798,18.0673382 74.1115964,18.2078995 C74.1190131,18.3484608 74.1338463,18.4851177 74.1560963,18.6178701 C74.1783462,18.7506225 74.2080127,18.8911838 74.2450959,19.0395541 C74.2821791,19.1879244 74.3303873,19.3558171 74.3897204,19.5432322 L74.5232199,19.5432322 C74.8792186,19.5432322 75.1833008,19.4182888 75.4354665,19.168402 C75.6876322,18.9185152 75.9027148,18.5944432 76.0807141,18.1961861 C76.2587134,17.7979289 76.4070462,17.352818 76.5257125,16.8608533 C76.6443787,16.3688886 76.7370867,15.8847329 76.8038364,15.4083861 C76.8705862,14.9320394 76.915086,14.4869285 76.9373359,14.0730534 C76.9595858,13.6591784 76.9707108,13.3272974 76.9707108,13.0774106 L76.9707108,12.6088728 C76.9707108,12.4058397 76.9632942,12.1754753 76.9484609,11.9177795 C76.9336276,11.6600837 76.9076694,11.394579 76.8705862,11.1212653 C76.833503,10.8479516 76.7778782,10.5980647 76.7037118,10.3716048 C76.6295454,10.1451449 76.5331291,9.96163422 76.4144629,9.82107288 C76.2957966,9.68051154 76.1400472,9.61023087 75.9472146,9.61023087 C75.6208825,9.50090539 75.3427585,9.52433228 75.1128427,9.68051154 C74.8829269,9.83669081 74.6975109,10.0982911 74.5565948,10.4653124 C74.4156786,10.8323336 74.3081374,11.281349 74.233971,11.8123585 C74.1598046,12.343368 74.1153047,12.9290403 74.1004715,13.5693753 C74.0856382,14.2097103 74.0819299,14.8890901 74.0893465,15.6075147 C74.0967631,16.3259393 74.1004715,17.044364 74.1004715,17.7627886 Z" id="Shape"></path>
                    <path d="M79.7163195,17.8330693 C79.6124865,17.1146446 79.5605701,16.4157424 79.5605701,15.7363626 C79.5605701,15.0569828 79.6013616,14.3658895 79.6829446,13.6630828 C79.7645276,12.9602761 79.8831939,12.2301381 80.0389433,11.4726686 C80.1946927,10.7151992 80.3764004,9.89916252 80.5840663,9.02455862 C80.5840663,8.85276143 80.6285661,8.69267768 80.7175658,8.54430738 C80.8065654,8.39593708 80.9252317,8.27099366 81.0735645,8.16947714 C81.2218972,8.06796062 81.3776467,7.9859665 81.5408127,7.92349479 C81.7039788,7.86102309 81.8597282,7.82978723 82.008061,7.82978723 C82.3343931,7.82978723 82.6310587,7.93911272 82.8980577,8.15776369 C83.1650567,8.37641467 83.4060975,8.64191942 83.62118,8.95427795 C83.8362625,9.26663649 84.0216785,9.59851743 84.1774279,9.94992078 C84.3331774,10.3013241 84.4629685,10.6019692 84.5668015,10.851856 C84.6854677,11.3984835 84.7707591,12.0192961 84.8226755,12.7142938 C84.874592,13.4092915 84.8783003,14.1160027 84.8338005,14.8344273 C84.7893007,15.552852 84.6854677,16.2595632 84.5223017,16.9545609 C84.3591356,17.6495586 84.1292198,18.2859891 83.8325542,18.8638524 C83.5358886,19.4417157 83.1539317,19.9258714 82.6866835,20.3163196 C82.2194352,20.7067678 81.6668956,20.9488456 81.0290646,21.0425532 C80.6878992,21.0425532 80.4283169,20.9215143 80.2503175,20.6794364 C80.0723182,20.4373585 79.942527,20.1406179 79.860944,19.7892146 C79.7793609,19.4378112 79.7348611,19.0825034 79.7274445,18.7232911 C79.7200278,18.3640788 79.7163195,18.0673382 79.7163195,17.8330693 Z M80.8510653,17.7627886 C80.8510653,17.9189679 80.8547736,18.0673382 80.8621902,18.2078995 C80.8696069,18.3484608 80.8844402,18.4851177 80.9066901,18.6178701 C80.92894,18.7506225 80.9586065,18.8911838 80.9956897,19.0395541 C81.0327729,19.1879244 81.0809811,19.3558171 81.1403142,19.5432322 L81.2738137,19.5432322 C81.6298124,19.5432322 81.9338946,19.4182888 82.1860603,19.168402 C82.4382261,18.9185152 82.6533086,18.5944432 82.8313079,18.1961861 C83.0093073,17.7979289 83.1576401,17.352818 83.2763063,16.8608533 C83.3949725,16.3688886 83.4876805,15.8847329 83.5544302,15.4083861 C83.62118,14.9320394 83.6656798,14.4869285 83.6879298,14.0730534 C83.7101797,13.6591784 83.7213046,13.3272974 83.7213046,13.0774106 L83.7213046,12.6088728 C83.7213046,12.4058397 83.713888,12.1754753 83.6990547,11.9177795 C83.6842214,11.6600837 83.6582632,11.394579 83.62118,11.1212653 C83.5840968,10.8479516 83.528472,10.5980647 83.4543056,10.3716048 C83.3801392,10.1451449 83.2837229,9.96163422 83.1650567,9.82107288 C83.0463905,9.68051154 82.890641,9.61023087 82.6978084,9.61023087 C82.3714763,9.50090539 82.0933523,9.52433228 81.8634365,9.68051154 C81.6335207,9.83669081 81.4481047,10.0982911 81.3071886,10.4653124 C81.1662724,10.8323336 81.0587312,11.281349 80.9845648,11.8123585 C80.9103984,12.343368 80.8658986,12.9290403 80.8510653,13.5693753 C80.836232,14.2097103 80.8325237,14.8890901 80.8399403,15.6075147 C80.847357,16.3259393 80.8510653,17.044364 80.8510653,17.7627886 Z" id="Shape"></path>
                    <path d="M90.6700069,16.702799 C90.519976,17.0617472 90.3286865,17.4753181 90.0961385,17.9435115 C89.8635905,18.4117048 89.5935348,18.8564885 89.2859714,19.2778626 C88.9784079,19.6992366 88.6220844,20.0581849 88.2170009,20.3547074 C87.8119173,20.6512299 87.3618244,20.7994911 86.8667223,20.7994911 C86.6416759,20.7994911 86.4653895,20.7721798 86.3378632,20.7175573 C86.2103369,20.6629347 86.0978137,20.5810008 86.0002936,20.4717557 C85.9027734,20.3625106 85.8127549,20.2298558 85.7302378,20.0737913 C85.6477208,19.9177269 85.5464499,19.746056 85.4264252,19.5587786 C85.3814159,18.7940628 85.3551605,17.9708227 85.3476589,17.0890585 C85.3401574,16.2072943 85.3814159,15.3255301 85.4714344,14.4437659 C85.561453,13.5620017 85.7152347,12.7309584 85.9327796,11.9506361 C86.1503245,11.1703138 86.457888,10.5070399 86.85547,9.96081425 C87.253052,9.41458863 87.7519049,9.02442748 88.3520287,8.79033079 C88.9521525,8.5562341 89.6798026,8.54062765 90.5349791,8.74351145 C90.5799883,8.30653096 90.5874899,7.72128923 90.5574837,6.98778626 C90.5274775,6.25428329 90.4824682,5.48176421 90.4224558,4.67022901 C90.3624435,3.85869381 90.3024311,3.07446989 90.2424187,2.31755725 C90.1824063,1.56064461 90.1448986,0.94028838 90.1298955,0.45648855 C90.1298955,0.316030534 90.1936586,0.210687023 90.3211849,0.140458015 C90.4487113,0.0702290076 90.5874899,0.0273112807 90.7375208,0.0117048346 C90.8875518,-0.00390161153 91.033832,-0.00390161153 91.1763614,0.0117048346 C91.3188908,0.0273112807 91.4126601,0.05072095 91.4576694,0.0819338422 C91.4276632,2.00152672 91.4201617,3.88600509 91.4351648,5.73536896 C91.4501679,7.58473282 91.4689217,9.42629347 91.4914264,11.2600509 C91.513931,13.0938083 91.5401864,14.9158609 91.5701926,16.7262087 C91.6001988,18.5365564 91.6152019,20.3469042 91.6152019,22.1572519 C91.6152019,22.3289228 91.6039496,22.5122986 91.5814449,22.7073791 C91.5589403,22.9024597 91.4276632,23 91.1876137,23 C91.0975951,23 91.0075765,22.9726887 90.917558,22.9180662 C90.8275394,22.8634436 90.767527,22.7815098 90.7375208,22.6722646 L90.6700069,16.702799 Z M89.7023073,9.91399491 C89.2372113,9.88278202 88.8058723,10.073961 88.4082903,10.4875318 C88.0107083,10.9011026 87.6656371,11.4356234 87.3730768,12.0910941 C87.0805164,12.7465649 86.8442177,13.468363 86.6641805,14.2564885 C86.4841434,15.0446141 86.3753709,15.8015267 86.3378632,16.5272265 C86.3003555,17.2529262 86.3453647,17.8966921 86.472891,18.4585242 C86.6004174,19.0203562 86.8292146,19.4027142 87.1592826,19.605598 C87.4893507,19.605598 87.7969142,19.4690416 88.081973,19.1959288 C88.3670318,18.9228159 88.629586,18.5755725 88.8696355,18.1541985 C89.109685,17.7328244 89.3197283,17.2607294 89.4997655,16.7379135 C89.6798026,16.2150975 89.8335844,15.7117897 89.9611107,15.2279898 C90.088637,14.74419 90.1861571,14.3033079 90.253671,13.9053435 C90.3211849,13.5073791 90.3549419,13.206955 90.3549419,13.0040712 C90.3549419,12.8480068 90.3624435,12.5983036 90.3774466,12.2549618 C90.3924496,11.91162 90.3849481,11.5682782 90.3549419,11.2249364 C90.3249357,10.8815946 90.2611726,10.5772689 90.1636524,10.3119593 C90.0661323,10.0466497 89.9123506,9.91399491 89.7023073,9.91399491 Z" id="Shape"></path>
                    <path d="M105.411791,20.2277218 C105.099132,17.7789496 104.905582,15.2488101 104.831139,12.6373031 C104.756696,10.0257961 104.756696,7.50340584 104.831139,5.07013227 C104.697142,5.14762506 104.578034,5.21736857 104.473814,5.2793628 C104.369595,5.34135703 104.243042,5.37235415 104.094157,5.37235415 C103.989937,5.37235415 103.893162,5.32585847 103.80383,5.23286713 C103.714499,5.13987578 103.669834,5.0236366 103.669834,4.88414958 L103.669834,4.81440607 C103.669834,4.79890751 103.677278,4.77565967 103.692167,4.74466256 C103.811275,4.60517554 103.956438,4.36494789 104.127656,4.02397962 C104.298874,3.68301135 104.481258,3.34591772 104.674809,3.01269872 C104.86836,2.67947973 105.054467,2.38500713 105.233129,2.12928093 C105.411791,1.87355473 105.568121,1.74569163 105.702118,1.74569163 C105.836115,1.74569163 105.936612,1.78056338 106.00361,1.85030689 C106.070609,1.9200504 106.126441,2.00141783 106.171106,2.09440918 C106.215772,2.18740052 106.26416,2.29201579 106.31627,2.40825497 C106.368379,2.52449415 106.446544,2.61361086 106.550764,2.67560509 C106.99742,2.39663105 107.488741,2.15640341 108.024728,1.95492216 C108.560715,1.75344091 109.100424,1.61395389 109.643855,1.5364611 C110.187287,1.45896831 110.715829,1.44734439 111.229484,1.50158934 C111.743138,1.55583429 112.208404,1.68757203 112.625283,1.89680256 C113.042162,2.10603309 113.399487,2.40438033 113.697257,2.79184428 C113.995028,3.17930822 114.188579,3.66751279 114.27791,4.25645799 C114.263021,5.01588732 114.05086,5.73269561 113.641425,6.40688288 C113.231991,7.08107014 112.725781,7.69326317 112.122795,8.24346197 C111.51981,8.79366078 110.868437,9.28186535 110.168676,9.70807568 C109.468915,10.134286 108.824986,10.5023768 108.23689,10.8123479 C107.648793,11.1223191 107.164916,11.370296 106.785258,11.5562787 C106.405601,11.7422614 106.23066,11.8507513 106.260438,11.8817484 L106.260438,20.2277218 C106.260438,20.3517102 106.208328,20.4369523 106.104108,20.483448 C105.999888,20.5299437 105.903113,20.5531915 105.813782,20.5531915 C105.650008,20.5531915 105.516011,20.4447016 105.411791,20.2277218 Z M106.260438,4.16346664 C106.215772,4.61292482 106.15994,5.10500402 106.092942,5.63970427 C106.025943,6.17440451 105.977556,6.72460331 105.947778,7.29030067 C105.918001,7.85599803 105.921724,8.41007147 105.958945,8.95252099 C105.996166,9.49497052 106.096664,9.98317509 106.260438,10.4171347 C106.900644,10.1226621 107.570628,9.79331775 108.270389,9.42910164 C108.97015,9.06488554 109.640133,8.65029912 110.28034,8.18534238 C110.920547,7.72038565 111.497477,7.2050586 112.011131,6.63936124 C112.524786,6.07366389 112.908165,5.44209766 113.16127,4.74466256 C113.16127,4.37269717 113.030996,4.05497674 112.770446,3.79150125 C112.509897,3.52802577 112.193516,3.31104596 111.821303,3.14056183 C111.449089,2.97007769 111.06571,2.84996387 110.671164,2.78022036 C110.276618,2.71047685 109.952792,2.67560509 109.699687,2.67560509 C109.550802,2.67560509 109.308864,2.71822613 108.973872,2.80346819 C108.63888,2.88871026 108.288999,2.99720017 107.924231,3.12893791 C107.559462,3.26067565 107.217025,3.41953587 106.896922,3.60551856 C106.576819,3.79150125 106.364657,3.97748395 106.260438,4.16346664 Z" id="Shape"></path>
                    <path d="M116.260227,19.338963 C116.360236,18.6340186 116.428099,17.752838 116.463816,16.6954214 C116.499534,15.6380047 116.513821,14.5116261 116.506677,13.3162855 C116.499534,12.1209449 116.474532,10.8872922 116.431671,9.61532721 C116.38881,8.34336225 116.331662,7.13652802 116.260227,5.99482452 C116.188792,4.85312103 116.106642,3.83018535 116.013777,2.92601748 C115.920911,2.02184961 115.824474,1.30924273 115.724466,0.788196845 C115.853048,0.69624757 115.963772,0.623454394 116.056638,0.569817317 C116.149503,0.516180241 116.260227,0.489361702 116.38881,0.489361702 C116.488819,0.489361702 116.57454,0.508517801 116.645975,0.546829999 C116.71741,0.585142197 116.774558,0.665597812 116.817419,0.788196845 C117.103158,3.79187315 117.299604,6.81853677 117.406756,9.86818772 C117.513909,12.9178387 117.596059,15.9521647 117.653207,18.9711659 C117.653207,19.1090898 117.653207,19.2968196 117.653207,19.5343552 C117.653207,19.7718908 117.646063,19.8983211 117.631776,19.913646 C117.431759,20.0209201 117.253171,20.070726 117.096015,20.0630635 C116.938858,20.0554011 116.795988,20.0094265 116.667406,19.9251396 C116.538823,19.8408528 116.438814,19.7450723 116.367379,19.6377981 C116.295944,19.530524 116.260227,19.4309123 116.260227,19.338963 Z" id="Path"></path>
                    <path d="M125.413895,20.7365367 C125.335379,20.3285148 125.268639,19.8381038 125.213678,19.2653037 C125.158716,18.6925036 125.099828,18.111857 125.037015,17.5233638 C124.974202,16.9348706 124.899611,16.381687 124.813242,15.863813 C124.726874,15.3459389 124.597321,14.9222238 124.424584,14.5926676 C123.623713,16.2247555 122.917063,17.5076706 122.304632,18.4414132 C121.692201,19.3751558 121.154361,20.0421147 120.691112,20.4422901 C120.227864,20.8424655 119.839206,21.0347066 119.525139,21.0190135 C119.211072,21.0033203 118.951966,20.8620819 118.747823,20.5952984 C118.543679,20.3285148 118.398423,19.9871887 118.312055,19.5713202 C118.225686,19.1554516 118.166799,18.7670461 118.135392,18.4061036 C118.135392,18.0608543 118.213909,17.5743665 118.370942,16.9466405 C118.527976,16.3189144 118.739971,15.632339 119.006928,14.8869142 C119.273885,14.1414895 119.591878,13.3842949 119.960907,12.6153304 C120.329935,11.846366 120.726445,11.1480207 121.150435,10.5202946 C121.574426,9.89256852 122.01412,9.3746945 122.469517,8.96667254 C122.924914,8.55865058 123.380311,8.3546396 123.835709,8.3546396 C124.510953,8.24478754 125.009534,8.3899492 125.331453,8.79012458 C125.653372,9.19029996 125.712259,9.86118222 125.508116,10.8027714 C125.508116,11.8385194 125.5513,12.7251825 125.637668,13.4627607 C125.724037,14.2003388 125.818257,14.9065307 125.920329,15.5813362 C126.0224,16.2561418 126.11662,16.9623336 126.202989,17.6999118 C126.289357,18.4374899 126.332542,19.324153 126.332542,20.3599011 C126.332542,20.5482189 126.312912,20.7090737 126.273654,20.8424655 C126.234396,20.9758573 126.04203,21.0425532 125.696556,21.0425532 C125.649446,21.0425532 125.590558,21.0033203 125.519893,20.9248545 C125.449228,20.8463888 125.413895,20.7836162 125.413895,20.7365367 Z M124.141924,10.2142781 C123.969187,9.96318771 123.733637,9.93964798 123.435273,10.143659 C123.136909,10.3476699 122.822842,10.6850727 122.493072,11.1558673 C122.163302,11.6266618 121.82568,12.1916153 121.480206,12.8507277 C121.134732,13.5098401 120.812813,14.1767991 120.51445,14.8516046 C120.216086,15.5264102 119.956981,16.1659061 119.737134,16.7700925 C119.517287,17.3742789 119.368105,17.8725364 119.289588,18.2648652 C119.289588,18.8298187 119.375957,19.1476051 119.548694,19.2182242 C119.72143,19.2888434 119.933426,19.1986078 120.184679,18.9475174 C120.435933,18.6964269 120.722519,18.3354844 121.044438,17.8646899 C121.366357,17.3938953 121.680424,16.8917144 121.986639,16.3581472 C122.292854,15.8245801 122.583366,15.306706 122.858175,14.8045252 C123.132984,14.3023443 123.348905,13.8943223 123.505938,13.5804593 C123.647268,13.2509031 123.757192,12.9448866 123.835709,12.6624099 C123.914225,12.3799332 123.980965,12.1092263 124.035926,11.8502893 C124.090888,11.5913523 124.122295,11.328492 124.130146,11.0617084 C124.137998,10.7949248 124.141924,10.512448 124.141924,10.2142781 Z" id="Shape"></path>
                    <path d="M128.635314,21.2466588 C128.470079,19.1072383 128.323621,16.9638559 128.19594,14.8165116 C128.068258,12.6691673 127.929311,10.4386234 127.779097,8.12487972 C127.779097,7.74453829 127.974375,7.55436758 128.36493,7.55436758 L128.545186,7.55436758 C128.59025,7.55436758 128.642825,7.61775782 128.70291,7.74453829 C128.762996,7.87131877 128.826836,8.10507027 128.894432,8.44579279 C128.962029,8.78651532 129.037135,9.301561 129.119753,9.99092983 C129.20237,10.6802987 129.303764,11.5796476 129.423935,12.6889768 C129.544106,13.798306 129.679298,15.1849674 129.829511,16.8489611 C130.14496,15.7713271 130.392812,14.7253882 130.573068,13.7111444 C130.753324,12.6969006 130.986155,11.7737802 131.271561,10.9417834 C131.556966,10.1097865 131.958787,9.3768369 132.477024,8.74293453 C132.995261,8.10903216 133.742573,7.64152916 134.71896,7.34042553 C135.259729,7.43551089 135.695348,7.7801953 136.025817,8.37447878 C136.356287,8.96876225 136.619161,9.70171187 136.814438,10.5733276 C137.009716,11.4449434 137.144908,12.3918351 137.220015,13.4140026 C137.295121,14.4361702 137.340185,15.414757 137.355207,16.349763 C137.370228,17.284769 137.377739,18.1207278 137.377739,18.8576393 C137.377739,19.5945508 137.39276,20.1214821 137.422803,20.4384333 C137.377739,20.5652138 137.310143,20.6761467 137.220015,20.771232 C137.129887,20.8663174 137.028492,20.9336695 136.915832,20.9732884 C136.803172,21.0129073 136.694267,21.0208311 136.589118,20.9970598 C136.483969,20.9732884 136.38633,20.8900887 136.296202,20.7474607 C136.296202,20.5731376 136.28118,20.2165675 136.251138,19.6777505 C136.221095,19.1389334 136.183542,18.508993 136.138478,17.787929 C136.093414,17.0668651 136.044594,16.2982584 135.992019,15.4821091 C135.939445,14.6659598 135.894381,13.8973532 135.856827,13.1762892 C135.819274,12.4552253 135.785476,11.8252848 135.755433,11.2864678 C135.725391,10.7476508 135.702858,10.3910807 135.687837,10.2167575 C135.372389,9.63039785 135.060696,9.29759911 134.752758,9.21836131 C134.444821,9.13912351 134.136883,9.24213265 133.828945,9.52738872 C133.521008,9.81264478 133.224336,10.2484527 132.93893,10.8348124 C132.653525,11.4211721 132.383141,12.0828077 132.127778,12.8197192 C131.872415,13.5566307 131.632073,14.3291992 131.406753,15.1374247 C131.181433,15.9456502 130.986155,16.7261425 130.82092,17.4789016 C130.655686,18.2316607 130.516738,18.9131057 130.404078,19.5232368 C130.291418,20.1333678 130.220066,20.6048327 130.190024,20.9376314 C130.14496,21.0485643 130.051076,21.1555354 129.908373,21.2585445 C129.765671,21.3615536 129.615457,21.4368295 129.457733,21.4843722 C129.300009,21.5319149 129.142285,21.5438006 128.984561,21.5200292 C128.826836,21.4962579 128.710421,21.4051344 128.635314,21.2466588 Z" id="Path"></path>
                    <path d="M139.573273,11.1096313 C139.411279,11.1868334 139.261435,11.2678956 139.12374,11.3528179 C138.986045,11.4377402 138.8524,11.5149423 138.722805,11.5844242 C138.59321,11.6539061 138.463614,11.7040875 138.334019,11.7349683 C138.204424,11.7658492 138.066729,11.7658492 137.920934,11.7349683 C137.823738,11.7349683 137.742741,11.6770668 137.677943,11.5612636 C137.613146,11.4454605 137.560498,11.3142169 137.519999,11.1675329 C137.479501,11.0208489 137.451152,10.8741649 137.434952,10.7274809 C137.418753,10.5807969 137.418753,10.4688539 137.434952,10.3916518 L139.767666,9.11781712 L139.913461,3.18869579 C139.945859,2.98797033 140.075455,2.90690813 140.302246,2.94550918 C140.529038,2.98411023 140.763929,3.03429159 141.00692,3.09605327 C141.039319,3.09605327 141.091967,3.10763359 141.164864,3.13079422 C141.237762,3.15395485 141.29041,3.17325537 141.322808,3.18869579 C141.29041,3.60558714 141.253961,4.05721943 141.213463,4.54359266 C141.172964,5.02996589 141.136515,5.51633913 141.104117,6.00271236 C141.071718,6.48908559 141.051469,6.96387851 141.043369,7.42709112 C141.035269,7.89030372 141.055518,8.30719506 141.104117,8.67776515 L144.748982,7.70501868 C144.813779,7.68957826 144.866427,7.73203941 144.906926,7.83240214 C144.947424,7.93276487 144.987923,8.05242813 145.028421,8.19139191 C145.06892,8.33035569 145.097269,8.46931947 145.113468,8.60828325 C145.129668,8.74724704 145.137767,8.81672893 145.137767,8.81672893 L141.00692,10.4842943 C141.00692,10.6232581 141.01907,10.9552271 141.043369,11.4802014 C141.067668,12.0051757 141.096017,12.6266526 141.128416,13.3446321 C141.160814,14.0626117 141.193213,14.8346327 141.225612,15.6606951 C141.258011,16.4867576 141.29041,17.2549185 141.322808,17.9651778 C141.355207,18.6754372 141.379506,19.2969141 141.395706,19.8296086 C141.411905,20.3623031 141.420005,20.6981322 141.420005,20.837096 C141.387606,21.3003086 141.245861,21.5319149 140.994771,21.5319149 C140.74368,21.5319149 140.47234,21.4161117 140.180751,21.1845054 L139.573273,11.1096313 Z" id="Path"></path>
                    <path d="M156.068581,6.89056088 C155.945633,6.65625637 155.861107,6.45319246 155.815001,6.28136915 C155.768896,6.10954585 155.745843,5.90648194 155.745843,5.67217743 C155.745843,5.59407593 155.749685,5.51597443 155.75737,5.43787292 C155.765054,5.35977142 155.788106,5.28948007 155.826528,5.22699886 C155.864949,5.16451766 155.926423,5.11765676 156.010949,5.08641616 C156.095476,5.05517556 156.206897,5.06298571 156.345213,5.10984661 C156.437424,5.14108721 156.529634,5.19966334 156.621845,5.28557499 C156.714056,5.37148665 156.802425,5.48082875 156.886951,5.6136013 C156.971478,5.74637386 157.040636,5.87524134 157.094425,6.00020374 C157.148215,6.12516615 157.190478,6.2266981 157.221215,6.3047996 C157.574689,6.02363419 157.958901,5.73856371 158.373849,5.44958815 C158.788797,5.16061259 159.23064,4.90287763 159.699378,4.67638327 C160.168116,4.44988891 160.644538,4.26635038 161.128645,4.12576767 C161.612751,3.98518497 162.077647,3.91489362 162.523332,3.91489362 C162.677016,3.91489362 162.861438,3.93051392 163.076596,3.96175452 C163.291755,3.99299512 163.495387,4.04766617 163.687492,4.12576767 C163.879598,4.20386918 164.040967,4.30930621 164.171599,4.44207876 C164.302231,4.57485132 164.367546,4.74276955 164.367546,4.94583345 C164.413652,5.32072067 164.371389,5.69951296 164.240757,6.08221032 C164.110125,6.46490768 163.933388,6.83588982 163.710545,7.19515674 C163.487702,7.55442365 163.234123,7.90588041 162.949806,8.24952703 C162.66549,8.59317364 162.381174,8.92119995 162.096857,9.23360596 C161.812541,9.54601197 161.551277,9.83498753 161.313066,10.1005326 C161.074855,10.3660778 160.894276,10.6003823 160.771328,10.8034462 C161.401435,10.3816981 162.081489,10.0731971 162.81149,9.87794336 C163.541492,9.6826896 164.275336,9.58506272 165.013022,9.58506272 C165.243548,9.58506272 165.493286,9.59677795 165.762234,9.6202084 C166.031182,9.64363885 166.280919,9.70221498 166.511446,9.79593678 C166.741973,9.88965858 166.934078,10.0224311 167.087763,10.1942544 C167.241448,10.3660778 167.31829,10.6081924 167.31829,10.9205984 C167.31829,11.2330044 167.176132,11.6664678 166.891815,12.2209884 C166.607499,12.7755091 166.238656,13.3847008 165.785286,14.0485636 C165.331917,14.7124264 164.832442,15.3840993 164.286862,16.0635824 C163.741282,16.7430655 163.214912,17.3600673 162.707753,17.914588 C162.200594,18.4691087 161.743383,18.9220974 161.336119,19.2735542 C160.928855,19.6250109 160.640696,19.8007393 160.471643,19.8007393 L159.872273,19.5195739 C159.949116,19.2227882 160.141221,18.8713314 160.44859,18.4652036 C160.75596,18.0590758 161.12096,17.6373277 161.543593,17.1999593 C161.966225,16.7625908 162.419595,16.301792 162.903701,15.8175627 C163.387807,15.3333333 163.845019,14.8647243 164.275336,14.4117356 C164.705652,13.9587469 165.08218,13.5174734 165.404917,13.0879151 C165.727655,12.6583569 165.938971,12.2678493 166.038866,11.9163926 C166.138761,11.5649358 166.096498,11.2681501 165.912076,11.0260355 C165.727655,10.7839208 165.351128,10.6003823 164.782495,10.4754199 C164.183125,10.4754199 163.553018,10.5808569 162.892175,10.7917309 C162.231331,11.002605 161.601225,11.3032958 161.001855,11.6938033 C160.402485,12.0843108 159.868431,12.5490148 159.399693,13.0879151 C158.930956,13.6268155 158.589007,14.2321021 158.373849,14.9037751 C158.373849,15.3411435 158.408428,15.7707017 158.477586,16.1924499 C158.546744,16.614198 158.619744,17.032041 158.696587,17.445979 C158.773429,17.859917 158.846429,18.27776 158.915587,18.6995081 C158.984745,19.1212562 159.019324,19.5430043 159.019324,19.9647525 C159.019324,20.2771585 158.996271,20.5348934 158.950166,20.7379573 C158.904061,20.9410212 158.711955,21.0425532 158.373849,21.0425532 C158.343112,21.0425532 158.293165,21.0386481 158.224007,21.030838 C158.154849,21.0230278 158.12027,21.0113126 158.12027,20.9956923 L156.068581,6.89056088 Z M157.543952,8.36667928 C157.543952,8.9446304 157.582374,9.5577272 157.659216,10.2059697 C157.736058,10.8542121 157.889743,11.4516886 158.12027,11.9983992 C158.350796,11.7953353 158.638955,11.5258851 158.984745,11.1900486 C159.330535,10.8542121 159.691694,10.4910402 160.068221,10.1005326 C160.444748,9.71002513 160.813591,9.29608716 161.17475,8.85871875 C161.535909,8.42135033 161.86633,7.99960222 162.166015,7.5934744 C162.4657,7.18734659 162.703911,6.8085543 162.880648,6.45709753 C163.057386,6.10564077 163.145754,5.81276014 163.145754,5.57845563 C163.145754,5.39101202 163.088123,5.26604962 162.972859,5.20356841 C162.857596,5.14108721 162.723122,5.10984661 162.569437,5.10984661 C162.200594,5.10984661 161.728014,5.18794811 161.151697,5.34415112 C160.57538,5.50035412 160.022116,5.71903833 159.491904,6.00020374 C158.961692,6.28136915 158.504481,6.62111069 158.12027,7.01942836 C157.736058,7.41774602 157.543952,7.86682966 157.543952,8.36667928 Z" id="Shape"></path>
                    <path d="M175.078979,20.7365367 C175.000462,20.3285148 174.933723,19.8381038 174.878761,19.2653037 C174.823799,18.6925036 174.764912,18.111857 174.702098,17.5233638 C174.639285,16.9348706 174.564694,16.381687 174.478325,15.863813 C174.391957,15.3459389 174.262404,14.9222238 174.089667,14.5926676 C173.288797,16.2247555 172.582146,17.5076706 171.969715,18.4414132 C171.357284,19.3751558 170.819444,20.0421147 170.356196,20.4422901 C169.892947,20.8424655 169.504289,21.0347066 169.190222,21.0190135 C168.876155,21.0033203 168.617049,20.8620819 168.412906,20.5952984 C168.208762,20.3285148 168.063506,19.9871887 167.977138,19.5713202 C167.890769,19.1554516 167.831882,18.7670461 167.800475,18.4061036 C167.800475,18.0608543 167.878992,17.5743665 168.036025,16.9466405 C168.193059,16.3189144 168.405054,15.632339 168.672011,14.8869142 C168.938968,14.1414895 169.256961,13.3842949 169.62599,12.6153304 C169.995018,11.846366 170.391528,11.1480207 170.815519,10.5202946 C171.239509,9.89256852 171.679203,9.3746945 172.1346,8.96667254 C172.589997,8.55865058 173.045395,8.3546396 173.500792,8.3546396 C174.176036,8.24478754 174.674617,8.3899492 174.996536,8.79012458 C175.318455,9.19029996 175.377342,9.86118222 175.173199,10.8027714 C175.173199,11.8385194 175.216383,12.7251825 175.302751,13.4627607 C175.38912,14.2003388 175.48334,14.9065307 175.585412,15.5813362 C175.687484,16.2561418 175.781704,16.9623336 175.868072,17.6999118 C175.95444,18.4374899 175.997625,19.324153 175.997625,20.3599011 C175.997625,20.5482189 175.977996,20.7090737 175.938737,20.8424655 C175.899479,20.9758573 175.707113,21.0425532 175.361639,21.0425532 C175.314529,21.0425532 175.255641,21.0033203 175.184976,20.9248545 C175.114311,20.8463888 175.078979,20.7836162 175.078979,20.7365367 Z M173.807007,10.2142781 C173.63427,9.96318771 173.39872,9.93964798 173.100356,10.143659 C172.801993,10.3476699 172.487926,10.6850727 172.158155,11.1558673 C171.828385,11.6266618 171.490763,12.1916153 171.145289,12.8507277 C170.799815,13.5098401 170.477897,14.1767991 170.179533,14.8516046 C169.881169,15.5264102 169.622064,16.1659061 169.402217,16.7700925 C169.18237,17.3742789 169.033188,17.8725364 168.954671,18.2648652 C168.954671,18.8298187 169.04104,19.1476051 169.213777,19.2182242 C169.386514,19.2888434 169.598509,19.1986078 169.849762,18.9475174 C170.101016,18.6964269 170.387602,18.3354844 170.709521,17.8646899 C171.03144,17.3938953 171.345507,16.8917144 171.651722,16.3581472 C171.957937,15.8245801 172.248449,15.306706 172.523258,14.8045252 C172.798067,14.3023443 173.013988,13.8943223 173.171021,13.5804593 C173.312352,13.2509031 173.422275,12.9448866 173.500792,12.6624099 C173.579309,12.3799332 173.646048,12.1092263 173.70101,11.8502893 C173.755971,11.5913523 173.787378,11.328492 173.79523,11.0617084 C173.803081,10.7949248 173.807007,10.512448 173.807007,10.2142781 Z" id="Shape"></path>
                    <path d="M179.268467,20.611495 C179.268467,20.6272009 179.431892,20.5329655 179.758743,20.3287887 C180.085595,20.124612 180.473255,19.8536853 180.921726,19.5160084 C181.370196,19.1783315 181.830068,18.8092429 182.301342,18.4087424 C182.772616,18.0082419 183.160277,17.6273738 183.464324,17.2661381 C183.768372,16.9049024 183.931798,16.5947109 183.954601,16.3355635 C183.977405,16.0764162 183.768372,15.9075777 183.327503,15.8290482 C182.780217,15.7505187 182.320345,15.7583717 181.947887,15.8526071 C181.575428,15.9468425 181.237175,16.0567838 180.933128,16.182431 C180.62908,16.3080782 180.344035,16.4258724 180.077993,16.5358137 C179.811952,16.6457551 179.519306,16.6850198 179.200056,16.653608 C178.531151,16.653608 178.071279,16.4376519 177.82044,16.0057396 C177.5696,15.5738273 177.444181,14.9887825 177.444181,14.2506052 C177.444181,13.5124279 177.603806,12.8095888 177.923056,12.142088 C178.242306,11.4745873 178.65277,10.8973954 179.154449,10.4105125 C179.656127,9.92362958 180.233818,9.53490854 180.88752,9.24434938 C181.541223,8.95379022 182.210128,8.80851064 182.894235,8.80851064 C183.167878,8.80851064 183.403515,8.83206949 183.601146,8.87918719 C183.798777,8.92630489 183.897592,9.10692275 183.897592,9.42104076 C183.897592,9.64092337 183.806378,9.84902655 183.623949,10.0453503 C183.441521,10.2416741 183.236289,10.3398359 183.008253,10.3398359 C182.99305,10.3398359 182.955045,10.3280565 182.894235,10.3044977 C182.833425,10.2809388 182.772616,10.2456005 182.711806,10.1984828 C182.650997,10.1513651 182.590187,10.1160269 182.529378,10.092468 C182.468568,10.0689092 182.430562,10.0571297 182.41536,10.0571297 C181.928884,9.91577663 181.45761,9.98645319 181.001538,10.2691594 C180.545467,10.5518656 180.138803,10.9327337 179.781547,11.4117637 C179.424291,11.8907936 179.139246,12.4090884 178.926413,12.9666478 C178.71358,13.5242073 178.607163,14.0228696 178.607163,14.4626349 C178.607163,14.6353998 178.641368,14.7728264 178.709779,14.8749148 C178.77819,14.9770031 178.869404,15.0516061 178.983422,15.0987238 C179.09744,15.1458415 179.22666,15.1733269 179.371083,15.1811798 C179.515505,15.1890328 179.663728,15.1929592 179.815752,15.1929592 C180.1198,15.1929592 180.427648,15.1458415 180.739297,15.0516061 C181.050946,14.9573707 181.354994,14.8474294 181.65144,14.7217822 C181.947887,14.596135 182.251934,14.4861937 182.563583,14.3919583 C182.875232,14.2977229 183.198283,14.2506052 183.532735,14.2506052 C183.684759,14.2506052 183.851985,14.2937964 184.034414,14.3801789 C184.216842,14.4665613 184.384069,14.5922085 184.536092,14.7571205 C184.688116,14.9220325 184.817336,15.1105033 184.923753,15.3225329 C185.03017,15.5345626 185.090979,15.7662246 185.106182,16.017519 C185.197396,16.2374016 185.170792,16.5279608 185.026369,16.8891965 C184.881947,17.2504322 184.665313,17.6352268 184.376467,18.0435802 C184.087622,18.4519336 183.737967,18.8642135 183.327503,19.2804199 C182.917039,19.6966262 182.506574,20.0735679 182.09611,20.4112447 C181.685645,20.7489216 181.282782,21.0237749 180.88752,21.2358045 C180.492258,21.4478342 180.157806,21.545996 179.884163,21.5302901 C179.580115,21.5302901 179.401487,21.4360547 179.348279,21.2475839 C179.295071,21.0591131 179.268467,20.8470835 179.268467,20.611495 Z" id="Path"></path>
                    <path d="M186.641496,15.9584286 C186.56429,15.974048 186.448482,15.9974772 186.29407,16.028716 C186.139658,16.0599549 185.977526,16.0677646 185.807674,16.0521452 C185.637821,16.0365257 185.48727,15.9896675 185.35602,15.9115703 C185.22477,15.8334731 185.159145,15.700708 185.159145,15.5132748 C185.159145,15.4039388 185.182307,15.3258417 185.22863,15.2789834 C185.274954,15.2321251 185.352159,15.1618376 185.460247,15.0681211 C185.799953,14.7869713 186.089475,14.4238196 186.328813,13.9786658 C186.568151,13.533512 186.788187,13.0571194 186.988922,12.5494879 C187.189657,12.0418564 187.401973,11.5342249 187.62587,11.0265934 C187.849767,10.518962 188.108406,10.0620936 188.401788,9.65598842 C188.69517,9.24988323 189.058037,8.92187519 189.49039,8.67196431 C189.922742,8.42205342 190.455462,8.30490769 191.08855,8.32052712 C191.35105,8.32052712 191.644432,8.38300484 191.968696,8.50796029 C192.29296,8.63291573 192.594063,8.80082461 192.872004,9.01168692 C193.149945,9.22254923 193.381562,9.47636497 193.566856,9.77313415 C193.75215,10.0699033 193.844797,10.3979114 193.844797,10.7571583 C193.922002,10.8821137 193.848657,11.0617372 193.62476,11.2960286 C193.400863,11.5303201 193.0959,11.7841358 192.709871,12.0574758 C192.323843,12.3308159 191.88763,12.6119656 191.401233,12.9009251 C190.914837,13.1898846 190.447742,13.4593197 189.999948,13.7092306 C189.552155,13.9591415 189.158405,14.1778135 188.818699,14.3652467 C188.478994,14.5526799 188.255097,14.6932547 188.147009,14.7869713 C188.069803,14.9431656 188.008039,15.1227891 187.961715,15.3258417 C187.915392,15.5288943 187.880649,15.7202323 187.857487,15.8998557 C187.834326,16.0794792 187.818884,16.2434832 187.811164,16.3918678 C187.803443,16.5402524 187.799583,16.6534932 187.799583,16.7315904 C187.799583,17.0283596 187.788002,17.3563676 187.76484,17.7156145 C187.741679,18.0748614 187.75712,18.414584 187.811164,18.7347823 C187.865208,19.0549807 187.992598,19.320511 188.193333,19.5313733 C188.394068,19.7422356 188.733773,19.8476668 189.212449,19.8476668 C189.722007,19.8476668 190.200683,19.7188065 190.648477,19.4610859 C191.09627,19.2033653 191.513182,18.8870718 191.899211,18.5122055 C192.28524,18.1373391 192.636526,17.7312339 192.95307,17.2938899 C193.269613,16.8565458 193.555275,16.4465358 193.810054,16.0638597 C194.064833,15.6811837 194.29259,15.3648902 194.493325,15.1149794 C194.69406,14.8650685 194.863913,14.740113 195.002884,14.740113 C195.157295,14.740113 195.323288,14.767447 195.500861,14.822115 C195.678434,14.876783 195.767221,15.0056433 195.767221,15.2086959 C195.767221,15.4898457 195.655273,15.8256634 195.431376,16.2161492 C195.207479,16.606635 194.914097,17.0205499 194.55123,17.4578939 C194.188362,17.895238 193.771451,18.3286772 193.300496,18.7582115 C192.82954,19.1877458 192.354725,19.5704219 191.876049,19.9062396 C191.397373,20.2420574 190.926418,20.5153974 190.463183,20.7262597 C189.999948,20.937122 189.590757,21.0425532 189.235611,21.0425532 C188.540759,21.0425532 188.015759,20.8707395 187.660613,20.527112 C187.305466,20.1834845 187.054547,19.7539502 186.907856,19.238509 C186.761165,18.7230678 186.683959,18.1724829 186.676239,17.5867542 C186.668518,17.0010256 186.656937,16.4582504 186.641496,15.9584286 Z M190.903256,9.63255928 C190.640756,9.63255928 190.362815,9.76141958 190.069433,10.0191402 C189.776051,10.2768608 189.501971,10.5892494 189.247192,10.956306 C188.992413,11.3233626 188.783957,11.6982289 188.621825,12.080905 C188.459693,12.463581 188.378626,12.7798745 188.378626,13.0297854 C188.610244,13.0297854 188.946089,12.9399737 189.386162,12.7603502 C189.826235,12.5807268 190.262448,12.3581499 190.6948,12.0926196 C191.127153,11.8270892 191.505461,11.5459395 191.829725,11.2491703 C192.15399,10.9524011 192.316122,10.6712514 192.316122,10.4057211 C192.316122,10.2651462 192.262078,10.1480005 192.15399,10.0542839 C192.045902,9.96056731 191.918512,9.88247016 191.771821,9.81999244 C191.62513,9.75751472 191.474579,9.71065643 191.320167,9.67941757 C191.165756,9.64817871 191.026785,9.63255928 190.903256,9.63255928 Z" id="Shape"></path>
                    <path d="M202.054805,16.702799 C201.904774,17.0617472 201.713485,17.4753181 201.480937,17.9435115 C201.248389,18.4117048 200.978333,18.8564885 200.670769,19.2778626 C200.363206,19.6992366 200.006883,20.0581849 199.601799,20.3547074 C199.196715,20.6512299 198.746623,20.7994911 198.25152,20.7994911 C198.026474,20.7994911 197.850188,20.7721798 197.722661,20.7175573 C197.595135,20.6629347 197.482612,20.5810008 197.385092,20.4717557 C197.287572,20.3625106 197.197553,20.2298558 197.115036,20.0737913 C197.032519,19.9177269 196.931248,19.746056 196.811223,19.5587786 C196.766214,18.7940628 196.739959,17.9708227 196.732457,17.0890585 C196.724955,16.2072943 196.766214,15.3255301 196.856233,14.4437659 C196.946251,13.5620017 197.100033,12.7309584 197.317578,11.9506361 C197.535123,11.1703138 197.842686,10.5070399 198.240268,9.96081425 C198.63785,9.41458863 199.136703,9.02442748 199.736827,8.79033079 C200.336951,8.5562341 201.064601,8.54062765 201.919777,8.74351145 C201.964786,8.30653096 201.972288,7.72128923 201.942282,6.98778626 C201.912276,6.25428329 201.867266,5.48176421 201.807254,4.67022901 C201.747242,3.85869381 201.687229,3.07446989 201.627217,2.31755725 C201.567204,1.56064461 201.529697,0.94028838 201.514694,0.45648855 C201.514694,0.316030534 201.578457,0.210687023 201.705983,0.140458015 C201.833509,0.0702290076 201.972288,0.0273112807 202.122319,0.0117048346 C202.27235,-0.00390161154 202.41863,-0.00390161154 202.561159,0.0117048346 C202.703689,0.0273112807 202.797458,0.05072095 202.842468,0.0819338422 C202.812461,2.00152672 202.80496,3.88600509 202.819963,5.73536896 C202.834966,7.58473282 202.85372,9.42629347 202.876224,11.2600509 C202.898729,13.0938083 202.924985,14.9158609 202.954991,16.7262087 C202.984997,18.5365564 203,20.3469042 203,22.1572519 C203,22.3289228 202.988748,22.5122986 202.966243,22.7073791 C202.943738,22.9024597 202.812461,23 202.572412,23 C202.482393,23 202.392375,22.9726887 202.302356,22.9180662 C202.212338,22.8634436 202.152325,22.7815098 202.122319,22.6722646 L202.054805,16.702799 Z M201.087105,9.91399491 C200.622009,9.88278202 200.19067,10.073961 199.793088,10.4875318 C199.395506,10.9011026 199.050435,11.4356234 198.757875,12.0910941 C198.465314,12.7465649 198.229016,13.468363 198.048979,14.2564885 C197.868941,15.0446141 197.760169,15.8015267 197.722661,16.5272265 C197.685154,17.2529262 197.730163,17.8966921 197.857689,18.4585242 C197.985215,19.0203562 198.214013,19.4027142 198.544081,19.605598 C198.874149,19.605598 199.181712,19.4690416 199.466771,19.1959288 C199.75183,18.9228159 200.014384,18.5755725 200.254434,18.1541985 C200.494483,17.7328244 200.704526,17.2607294 200.884564,16.7379135 C201.064601,16.2150975 201.218382,15.7117897 201.345909,15.2279898 C201.473435,14.74419 201.570955,14.3033079 201.638469,13.9053435 C201.705983,13.5073791 201.73974,13.206955 201.73974,13.0040712 C201.73974,12.8480068 201.747242,12.5983036 201.762245,12.2549618 C201.777248,11.91162 201.769746,11.5682782 201.73974,11.2249364 C201.709734,10.8815946 201.645971,10.5772689 201.548451,10.3119593 C201.45093,10.0466497 201.297149,9.91399491 201.087105,9.91399491 Z" id="Shape"></path>
                </g>
            </g>
        </g>
    </g>
</svg>