<?xml version="1.0" encoding="UTF-8"?>
<svg width="14px" height="12px" viewBox="0 0 14 12" version="1.1" xmlns="http://www.w3.org/2000/svg" xmlns:xlink="http://www.w3.org/1999/xlink">
    <title>“</title>
    <g id="Page-1" stroke="none" stroke-width="1" fill="none" fill-rule="evenodd">
        <g id="“" transform="translate(0.080000, 0.544000)" fill="#92782E" fill-rule="nonzero">
            <path d="M13.572,8.216 C13.572,9.01333333 13.312,9.646 12.792,10.114 C12.272,10.582 11.6133333,10.816 10.816,10.816 C9.88,10.816 9.10866667,10.504 8.502,9.88 C7.89533333,9.256 7.592,8.33733333 7.592,7.124 C7.592,5.98 7.75666667,5.00066667 8.086,4.186 C8.41533333,3.37133333 8.814,2.678 9.282,2.106 C9.75,1.534 10.2353333,1.07466667 10.738,0.728 C11.2406667,0.381333333 11.6826667,0.138666667 12.064,0 L13.364,1.82 C12.6013333,2.20133333 11.986,2.71266667 11.518,3.354 C11.05,3.99533333 10.816,4.80133333 10.816,5.772 C10.9546667,5.73733333 11.1453333,5.72 11.388,5.72 C12.0813333,5.72 12.6186667,5.96266667 13,6.448 C13.3813333,6.93333333 13.572,7.52266667 13.572,8.216 Z M5.98,8.216 C5.98,9.01333333 5.72,9.646 5.2,10.114 C4.68,10.582 4.02133333,10.816 3.224,10.816 C2.288,10.816 1.51666667,10.504 0.91,9.88 C0.303333333,9.256 1.77635684e-15,8.33733333 1.77635684e-15,7.124 C1.77635684e-15,5.98 0.164666667,5.00066667 0.494,4.186 C0.823333333,3.37133333 1.222,2.678 1.69,2.106 C2.158,1.534 2.64333333,1.07466667 3.146,0.728 C3.64866667,0.381333333 4.09066667,0.138666667 4.472,0 L5.772,1.82 C5.00933333,2.20133333 4.394,2.71266667 3.926,3.354 C3.458,3.99533333 3.224,4.80133333 3.224,5.772 C3.36266667,5.73733333 3.55333333,5.72 3.796,5.72 C4.48933333,5.72 5.02666667,5.96266667 5.408,6.448 C5.78933333,6.93333333 5.98,7.52266667 5.98,8.216 Z" id="Shape"></path>
        </g>
    </g>
</svg>